HIERARCHY
ROOT Hips
{
 OFFSET 0.000000 0.000000 0.000000
 CHANNELS 6 Xposition Yposition Zposition Yrotation Xrotation Zrotation
 JOINT Chest
 {
  OFFSET 0.000000 9.585900 0.002600
  CHANNELS 3 Yrotation Xrotation Zrotation
  JOINT Chest2
  {
   OFFSET 0.000000 9.601200 -0.005300
   CHANNELS 3 Yrotation Xrotation Zrotation
   JOINT Chest3
   {
    OFFSET 0.000000 9.561800 0.000000
    CHANNELS 3 Yrotation Xrotation Zrotation
    JOINT Chest4
    {
     OFFSET 0.000000 9.552100 0.000000
     CHANNELS 3 Yrotation Xrotation Zrotation
     JOINT Neck
     {
      OFFSET 0.000000 14.453000 0.000000
      CHANNELS 3 Yrotation Xrotation Zrotation
      JOINT Head
      {
       OFFSET 0.000000 8.936500 -0.011300
       CHANNELS 3 Yrotation Xrotation Zrotation
       End Site
       {
        OFFSET 0.000000 17.073600 -0.006000
       }
      }
     }
     JOINT RightCollar
     {
      OFFSET -2.921100 9.558500 0.000000
      CHANNELS 3 Yrotation Xrotation Zrotation
      JOINT RightShoulder
      {
       OFFSET -13.519700 0.000000 0.000000
       CHANNELS 3 Yrotation Xrotation Zrotation
       JOINT RightElbow
       {
        OFFSET 0.000000 -29.696600 0.000000
        CHANNELS 3 Yrotation Xrotation Zrotation
        JOINT RightWrist
        {
         OFFSET 0.000000 -24.004700 0.000000
         CHANNELS 3 Yrotation Xrotation Zrotation
         End Site
         {
          OFFSET 0.000000 -17.728500 0.000000
         }
        }
       }
      }
     }
     JOINT LeftCollar
     {
      OFFSET 2.921100 9.558500 0.000000
      CHANNELS 3 Yrotation Xrotation Zrotation
      JOINT LeftShoulder
      {
       OFFSET 13.519700 0.000000 0.000000
       CHANNELS 3 Yrotation Xrotation Zrotation
       JOINT LeftElbow
       {
        OFFSET 0.000000 -29.696600 0.000000
        CHANNELS 3 Yrotation Xrotation Zrotation
        JOINT LeftWrist
        {
         OFFSET 0.000000 -24.004700 0.000000
         CHANNELS 3 Yrotation Xrotation Zrotation
         End Site
         {
          OFFSET 0.000000 -17.728500 0.000000
         }
        }
       }
      }
     }
    }
   }
  }
 }
 JOINT RightHip
 {
  OFFSET -7.771700 -0.012900 -0.001300
  CHANNELS 3 Yrotation Xrotation Zrotation
  JOINT RightKnee
  {
   OFFSET 0.000000 -40.869800 0.001200
   CHANNELS 3 Yrotation Xrotation Zrotation
   JOINT RightAnkle
   {
    OFFSET 0.000000 -39.717900 0.002100
    CHANNELS 3 Yrotation Xrotation Zrotation
    JOINT RightToe
    {
     OFFSET 0.000000 -4.965400 11.033500
     CHANNELS 3 Yrotation Xrotation Zrotation
     End Site
     {
      OFFSET 0.000000 -1.423100 5.872300
     }
    }
   }
  }
 }
 JOINT LeftHip
 {
  OFFSET 7.771700 -0.012900 -0.001300
  CHANNELS 3 Yrotation Xrotation Zrotation
  JOINT LeftKnee
  {
   OFFSET 0.000000 -40.869800 0.001200
   CHANNELS 3 Yrotation Xrotation Zrotation
   JOINT LeftAnkle
   {
    OFFSET 0.000000 -39.717900 0.002100
    CHANNELS 3 Yrotation Xrotation Zrotation
    JOINT LeftToe
    {
     OFFSET 0.000000 -4.965400 11.033500
     CHANNELS 3 Yrotation Xrotation Zrotation
     End Site
     {
      OFFSET 0.000000 -1.423100 5.872300
     }
    }
   }
  }
 }
}
MOTION
Frames: 12
Frame Time: 0.008333
0.000000 85.388000 0.000000 0.000000 -5.767877 0.000000 0.000000 11.653817 0.000000 0.000000 -5.885947 0.000000 0.000000 -0.000000 0.000000 0.000000 -0.000000 0.000000 0.000000 12.528835 0.000000 0.000000 0.711642 0.000000 0.000000 -0.000000 0.000000 0.000000 0.000000 -90.000000 0.000000 -2.309062 0.000000 0.000000 2.309062 0.000000 0.000000 -0.000000 0.000000 0.000000 -0.000000 90.000000 0.000000 -2.309062 0.000000 0.000000 2.309062 0.000000 0.000000 8.520406 0.000000 0.000000 1.905762 0.000000 -0.000000 -4.658285 0.000000 0.000000 -0.000000 0.000000 0.000000 8.520406 0.000000 0.000000 1.905762 0.000000 -0.000000 -4.658285 0.000000 0.000000 -0.000000 0.000000
-16.763341 57.459634 76.487368 -178.442733 -34.516172 -1.079198 4.140859 20.218494 5.074662 0.483895 2.744451 0.382039 0.799640 4.475817 0.635812 3.546231 17.635546 2.959405 -0.089417 6.841900 -4.560493 2.187347 -22.937847 -9.053451 3.275999 -0.944363 -0.929748 26.442793 -39.632082 -34.745548 76.213844 -77.157686 -44.897245 9.718660 -18.887957 -42.793820 -13.617926 -10.401702 1.986037 -21.742125 -37.241836 42.164145 18.790524 -71.710627 -46.669265 -2.923084 -1.212154 3.506672 6.477136 -36.382659 -8.798459 3.903271 66.058237 6.409175 6.438265 5.993368 5.417416 -0.610460 0.822246 -0.459964 -10.007582 -44.309534 -0.033326 26.679585 64.026031 28.301099 -14.171366 33.357604 -2.580335 0.251826 -15.060920 -6.909012
-16.763208 57.457462 76.496718 -178.391903 -34.577472 -1.142666 4.234119 20.256078 5.189416 0.494757 2.754150 0.389255 0.817298 4.490687 0.647743 3.615284 17.649800 3.009134 -0.081138 6.772536 -4.618875 2.240810 -23.061745 -9.180378 3.135327 -1.005637 -0.951704 25.671216 -39.502586 -34.567761 75.456987 -77.752518 -46.780309 9.473566 -18.856937 -43.103059 -13.290380 -10.380408 2.212196 -20.450783 -36.954671 42.042571 20.376964 -71.636417 -46.128264 -2.631271 -1.495066 4.330599 6.505551 -36.302315 -8.865532 3.796429 66.049918 6.517179 5.954482 6.019216 5.383982 -0.738383 0.798616 -0.511114 -10.096372 -44.269377 0.114634 26.652092 64.039322 28.146274 -14.257405 33.529169 -2.496363 0.271831 -15.204974 -6.931111
-16.768334 57.449438 76.515778 -178.339909 -34.592201 -1.177321 4.311565 20.251503 5.267469 0.444838 2.764025 0.377982 0.896810 4.507831 0.675522 3.683360 17.666266 3.058723 -0.067439 6.693907 -4.669042 2.301913 -23.202737 -9.294747 2.973155 -1.062963 -0.973187 24.878411 -39.348820 -34.294483 75.193644 -78.385854 -49.307734 9.195833 -18.828781 -43.429962 -12.951898 -10.344436 2.406941 -19.006979 -36.668214 41.780257 22.119882 -71.756910 -45.582176 -2.354460 -1.729498 5.195247 6.549953 -36.269233 -8.986841 3.743719 66.024823 6.634916 5.682694 6.048419 5.350101 -0.757628 0.791546 -0.527074 -10.146297 -44.272929 0.212104 26.647267 64.037180 28.028981 -14.334421 33.605953 -2.440554 0.283246 -15.249684 -6.918673
-16.774536 57.442960 76.533664 -178.304064 -34.632694 -1.199922 4.398586 20.272825 5.342386 0.485839 2.775503 0.394858 0.881930 4.524025 0.680047 3.746736 17.683833 3.108918 -0.045150 6.606983 -4.711466 2.377093 -23.358848 -9.399050 2.911826 -1.144659 -0.995532 23.925927 -39.144635 -33.898027 75.641156 -79.043247 -52.662310 8.902108 -18.792584 -43.813384 -12.604356 -10.291576 2.559527 -17.390441 -36.388769 41.359825 24.154135 -72.109104 -45.186229 -2.111495 -1.900672 6.117699 6.590537 -36.213291 -9.092784 3.722282 65.996468 6.737697 5.538432 6.075110 5.335488 -0.749955 0.777883 -0.520758 -10.155666 -44.247524 0.277245 26.657827 64.022876 27.944039 -14.416351 33.689788 -2.371509 0.304178 -15.302737 -6.924244
-16.781538 57.437195 76.551395 -178.273296 -34.683657 -1.219524 4.491032 20.303837 5.417271 0.525470 2.786717 0.411862 0.867567 4.540179 0.685146 3.807800 17.701028 3.160409 -0.016929 6.512848 -4.745428 2.460684 -23.528486 -9.490446 2.807320 -1.209655 -1.015112 22.940761 -38.943921 -33.382193 77.007182 -79.719707 -56.987258 8.603794 -18.743475 -44.288385 -12.273702 -10.212952 2.672565 -15.586695 -36.130725 40.770734 26.545472 -72.688211 -45.074863 -1.855371 -2.139414 7.137460 6.604123 -36.153710 -9.162928 3.680336 65.972476 6.774135 5.463537 6.103479 5.328003 -0.724476 0.758932 -0.499708 -10.140133 -44.206921 0.316662 26.674158 64.001609 27.881446 -14.466097 33.756388 -2.289114 0.302380 -15.342630 -6.927706
-16.790694 57.431031 76.570418 -178.279261 -34.727653 -1.212421 4.617030 20.329006 5.483384 0.471298 2.795168 0.405054 0.949842 4.557911 0.709676 3.872300 17.715952 3.212542 0.013581 6.411313 -4.767925 2.543913 -23.712356 -9.561060 2.676293 -1.267429 -1.028970 21.862423 -38.759278 -32.721776 79.516096 -80.400625 -62.457393 8.291199 -18.671640 -44.870496 -11.982577 -10.106038 2.754587 -13.584473 -35.904385 40.012306 29.436053 -73.434898 -45.445334 -1.556212 -2.528637 8.315764 6.622208 -36.112383 -9.200620 3.592023 65.955479 6.719659 5.420858 6.136139 5.322170 -0.658957 0.749718 -0.484866 -10.089679 -44.170951 0.328361 26.709729 63.972335 27.849625 -14.463129 33.820052 -2.183839 0.270439 -15.377709 -6.936989
-16.805407 57.426350 76.587915 -178.268159 -34.777925 -1.192739 4.662773 20.372770 5.492395 0.570462 2.805881 0.429511 0.934420 4.572701 0.715496 3.937696 17.729513 3.263039 0.050582 6.300527 -4.777279 2.634587 -23.913676 -9.610073 2.546325 -1.320498 -1.035963 20.651754 -38.604174 -31.916232 83.374323 -81.050365 -69.256680 7.947764 -18.576149 -45.549255 -11.723798 -9.986604 2.795561 -11.370451 -35.708880 39.095924 33.030648 -74.251229 -46.556780 -1.195194 -3.097803 9.710419 6.649090 -36.054704 -9.279859 3.588952 65.933962 6.753130 5.398751 6.145240 5.326896 -0.634665 0.754937 -0.476726 -10.051659 -44.127875 0.292593 26.783181 63.934486 27.857198 -14.401906 33.858520 -2.040537 0.208371 -15.390222 -6.968114
-16.817879 57.423966 76.602778 -178.217617 -34.835690 -1.223149 4.771012 20.422206 5.571544 0.582664 2.817900 0.438410 0.917073 4.585267 0.722001 3.995946 17.743488 3.308871 0.100467 6.179062 -4.773602 2.745671 -24.134607 -9.641245 2.437249 -1.364408 -1.040982 19.299889 -38.488917 -30.975214 88.714314 -81.623220 -77.498665 7.574541 -18.476510 -46.283849 -11.475777 -9.858283 2.785348 -8.949703 -35.554231 38.034478 37.514848 -75.015443 -48.637924 -0.760225 -3.877410 11.309061 6.560970 -35.982876 -9.290979 3.637527 65.895437 6.796364 5.411899 6.139499 5.334268 -0.661690 0.765570 -0.458140 -10.019536 -44.071791 0.286866 26.738041 63.919584 27.776257 -14.399325 33.878469 -1.965285 0.201318 -15.388849 -6.967724
-16.830344 57.421114 76.618992 -178.179216 -34.869067 -1.262001 4.884895 20.453692 5.658816 0.563546 2.825404 0.440443 0.929721 4.599014 0.732169 4.042890 17.757686 3.348565 0.163023 6.047239 -4.754953 2.875514 -24.374726 -9.650424 2.353566 -1.395078 -1.044436 17.809277 -38.412436 -29.905709 95.585574 -82.066826 -87.227370 7.195663 -18.384263 -47.039121 -11.228279 -9.711715 2.733369 -6.330372 -35.453428 36.828501 43.051073 -75.609237 -51.869651 -0.273506 -4.857574 13.079465 6.461272 -35.942235 -9.257420 3.572268 65.860744 6.704794 5.448568 6.151051 5.340977 -0.669218 0.767887 -0.432354 -9.890012 -44.031660 0.247805 26.563248 63.912556 27.640220 -14.414098 33.873228 -1.942202 0.205686 -15.359580 -6.927705
-16.849085 57.420395 76.632769 -178.106134 -34.902954 -1.299218 4.933582 20.493530 5.703331 0.570000 2.833945 0.445912 0.940295 4.612011 0.741202 4.081449 17.772101 3.382912 0.233634 5.906872 -4.718293 3.013212 -24.631322 -9.628920 2.285330 -1.416294 -1.042941 16.196530 -38.360482 -28.715124 103.773284 -82.308703 -98.215286 6.812184 -18.308414 -47.822269 -10.977949 -9.550975 2.652391 -3.522533 -35.395478 35.466909 49.741062 -75.951296 -56.374090 0.259506 -6.042797 15.031809 6.378008 -35.902384 -9.250143 3.444094 65.846693 6.549100 5.484921 6.180512 5.356694 -0.664065 0.743677 -0.401751 -9.870096 -43.997502 0.209167 26.517320 63.892162 27.579613 -14.363591 33.880194 -1.847818 0.173536 -15.339201 -6.938032
-16.871777 57.419627 76.647158 -178.060079 -34.914384 -1.310781 4.945737 20.510273 5.710172 0.629219 2.854071 0.448410 0.950786 4.625569 0.749068 4.118958 17.788094 3.412543 0.306925 5.760005 -4.661688 3.146651 -24.901206 -9.569681 2.220268 -1.433439 -1.031086 14.489410 -38.320482 -27.416312 112.739801 -82.308839 -109.928000 6.409127 -18.255785 -48.611352 -10.723711 -9.386270 2.555815 -0.547599 -35.364948 33.934453 57.478565 -75.989467 -62.082109 0.878757 -7.500625 17.197360 6.327409 -35.892202 -9.229709 3.207439 65.843089 6.237932 5.576041 6.215276 5.428221 -0.688121 0.710511 -0.383963 -9.868223 -43.988240 0.178963 26.518812 63.868533 27.545426 -14.309861 33.890833 -1.760714 0.154859 -15.332738 -6.953883
